<svg xmlns="http://www.w3.org/2000/svg" viewBox="0 0 125.43 123.56"><defs><style>.cls-1{fill:#d19a6d;}.cls-1,.cls-2,.cls-3,.cls-4{stroke:#1d1d1b;stroke-miterlimit:10;}.cls-2{fill:#c2874b;}.cls-3{fill:#f6be82;}.cls-4{fill:#73b72b;}</style></defs><title>logo_bois</title><g id="maison"><path class="cls-1" d="M106.25,71c0-1-1.13-2.73-1.06-3.66.08-1.3-.93-2-1.8-3.36-1.54-2.51-2-2-3.17-3.74-1.44-2.11-1.75-2.47-5.64-4.94-2.24-1.42-1.91-2.06-4.3-3.39s-3.22-1-5.07-2.17c-2.54-1.67-5.72-.56-7.88-2.17-3.42-2.54-4.56-4.14-6.23-3.89-1,.15-1.48.32-4.77.9s-4.3,4.08-4.94,4.24c-4.18,1-5.66,1.13-7.27,3.38a37.32,37.32,0,0,0-3.36,6.15c-1.27,2.65-2.16,5-2.7,6.34-1.52,3.92-1.63,4.9-2.94,7.34s-1.55,2.13-1.76,3.15c-.48,2.4.8,4.79,2.75,8.43a12.42,12.42,0,0,0,1,1.66C48.28,86.86,49.05,87,49.44,88s-.2,1.7-.29,3c-.13,1.8.9,3.14,2.59,5.34,1.55,2,3.7,4.82,7.2,5.7,1.37.34,1.77.1,3.13.64,2.27.91,2.23,2,4.25,2.91a7.92,7.92,0,0,0,5.6.44c1.23-.45,1.75-1.14,2.93-1s1.41.94,2.28,1,4.17.91,7-.47c4.76-2.31,3.2-2.73,4.88-4a18,18,0,0,0,4.66-5.78c1.07-1.89,3.24-.65,4.26-1.72,1.85-1.95.76-2.9,2.28-4.52s-1.8-3.7.37-8.31c.34-.72,3.06,0,3.45-.7,1.49-2.57,2.31-2.61,2.61-3.93a6.56,6.56,0,0,0-.86-4.16C105.14,71,106.21,72.12,106.25,71Z" transform="translate(-10.55 -12.94)"/><path class="cls-2" d="M118.13,81.2c-.14-4,.93-4.1.56-8.19s-1.55-4.78-1.61-8.11c-.07-4.54-4.13-7.54-4-11.57.25-6.37,1.28-9.14-.44-11-1-1.1-1.65-1.57-5.14-5.14s-8.69-1.88-9.42-2.53c-4.78-4.32-6.18-6-10.33-6.14-3.15-.07-5.58.3-10.44,1-4.35.67-8,1.51-10.12,2-6.14,1.44-7.44,2.13-11.56,2.57s-3.95-.12-5.38.48c-3.38,1.44-5.26,5-8.11,10.52A20.85,20.85,0,0,0,41,47.8c-1,2.78-.46,3.83-1.37,5.14s-2.27,1.2-3.93,2.17c-2.34,1.36-3.13,3.77-4.42,7.7-1.18,3.62-2.83,8.66-1,13.73.73,2,1.37,2.26,1.85,4.42.79,3.56-.59,4.43,0,7.71.12.7.89,5,4.17,7.3,1.6,1.14,2.89,1.19,3.77,2.73s0,2.54.65,3.7,2.38,5.92,6.49,8.27c6.88,3.92,6.07,1.64,9.08,2.65a27.5,27.5,0,0,0,11.08.88c3.25-.29,3.54,3.45,5.73,3.8,4,.64,4.23-1.51,7.52-1,3.06.48,3.05-5.35,10.59-6.57,1.18-.18,2.62,3.76,3.78,3.68,4.44-.32,5.17.66,7.07-.08,2.25-.88,3.61-3.2,4.41-4.58,1.14-1.94.68.31,2.08-.57s2.42-3.7,3.62-4.41c1.69-1,1.65-2.81,2.65-5,1.69-3.77.9-4.09,1.75-6.56-7-2.82-13.39-5.69-13.14-6.31s6.81,1.87,13.85,4.43M106.64,76.53c-.3,1.32-1.12,1.36-2.61,3.93-.39.67-3.11,0-3.45.7-2.17,4.61,1,6.8-.37,8.31S99.78,92,97.93,94c-1,1.07-3.19-.17-4.26,1.72A18,18,0,0,1,89,101.49c-1.68,1.28-.12,1.7-4.88,4-2.83,1.38-6.13.57-7,.47s-1.21-1-2.28-1-1.7.6-2.93,1a7.92,7.92,0,0,1-5.6-.44c-2-.91-2-2-4.25-2.91-1.36-.54-1.76-.3-3.13-.64-3.5-.88-5.65-3.68-7.2-5.7C50.05,94.09,49,92.75,49.15,91c.09-1.28.7-1.91.29-3s-1.16-1.11-2.32-2.69a12.42,12.42,0,0,1-1-1.66c-2-3.64-3.23-6-2.75-8.43.21-1,.46-.73,1.76-3.15s1.42-3.42,2.94-7.34c.54-1.39,1.43-3.69,2.7-6.34a37.32,37.32,0,0,1,3.36-6.15c1.61-2.25,3.09-2.37,7.27-3.38.64-.16,1.79-3.68,4.94-4.24s3.78-.75,4.77-.9c1.67-.25,2.81,1.35,6.23,3.89,2.16,1.61,5.34.5,7.88,2.17,1.85,1.22,2.62.8,5.07,2.17s2.06,2,4.3,3.39c3.89,2.47,4.2,2.83,5.64,4.94,1.2,1.76,1.63,1.23,3.17,3.74.87,1.4,1.88,2.06,1.8,3.36-.07.93,1.09,2.66,1.06,3.66s-1.11,0-.47,1.36A6.56,6.56,0,0,1,106.64,76.53Z" transform="translate(-10.55 -12.94)"/><path class="cls-3" d="M112.18,104.48c-1.2.71-2.36,3.61-3.62,4.41s-.94-1.37-2.08.57c-.8,1.38-2.16,3.7-4.41,4.58-1.9.74-2.63-.24-7.07.08-1.16.08-2.6-3.86-3.78-3.68-7.54,1.22-7.53,7-10.59,6.57-3.29-.52-3.54,1.63-7.52,1-2.19-.35-2.48-4.09-5.73-3.8a27.5,27.5,0,0,1-11.08-.88c-3-1-2.2,1.27-9.08-2.65-4.11-2.35-5.89-7.11-6.49-8.27s.15-2.3-.65-3.7S37.91,97.11,36.31,96c-3.28-2.34-4.05-6.6-4.17-7.3-.59-3.28.79-4.15,0-7.71-.48-2.16-1.12-2.44-1.85-4.42-1.87-5.07-.22-10.11,1-13.73,1.29-3.93,2.08-6.34,4.42-7.7,1.66-1,2.95-.74,3.93-2.17S40,50.58,41,47.8a20.85,20.85,0,0,1,1.2-2.65c2.85-5.48,4.73-9.08,8.11-10.52,1.43-.6,1.29,0,5.38-.48S61.08,33,67.22,31.58c2.17-.5,5.77-1.34,10.12-2,4.86-.74,7.29-1.11,10.44-1,4.15.1,5.55,1.82,10.33,6.14.73.65,6.06-.9,9.42,2.53s4.11,4,5.14,5.14c1.72,1.85.69,4.62.44,11-.16,4,3.9,7,4,11.57.06,3.33,1.23,3.93,1.61,8.11s-.7,4.21-.56,8.19c.19,5.93.08,7.27-.84,9.79,6.48,2.36,14.66,2.69,17.42,2.61.48,0,1.53-13.12-.15-18.6a39.64,39.64,0,0,1-2.23-11.22c-.1-6.29,2.89-6.55,3.11-12.11.36-8.83-6.83-16.55-9.22-19.11-1.42-1.53-2.28-2.17-7.11-7.12-4.64-4.74-4.44-4.75-5.44-5.66-6.62-6-16.14-6.2-21.89-6.34-4.35-.1-9.81,1.36-16.61,1.39C54.83,14.94,62,36.5,57.56,30.56c-5.23-7,9.19-16.89-10.23-9.34-5.3,2.07-5.46-.17-7.44.67-4.69,2-7.28,7-11.22,14.55A25.87,25.87,0,0,0,27,40.11c-1.34,3.85-.64,5.3-1.89,7.11-1.36,2-3.15,1.66-5.44,3-3.24,1.89-4.33,5.22-6.11,10.67-1.65,5-3.93,12-1.34,19,1,2.73,1.9,3.13,2.56,6.11,1.09,4.93-.82,6.14,0,10.67.17,1,1.23,6.87,5.78,10.11,2.2,1.57,4,1.64,5.22,3.78,1.1,1.93.35,3.11.89,5.11.86,3.23,4,4.42,9.66,7.66,9.52,5.44,7.73,6.06,11.89,7.45,6.13,2,12.36,1.49,15.34,1.22,4.49-.4,5.41-1.16,8.44-.67,5.5.89,5.34,3.84,9.89,4.56,4.23.66,5.12-1.77,15.55-3.45,1.63-.26,2.73-.43,4.34-.55,6.14-.45,7.15.91,9.78-.11,3.11-1.22,5-4.43,6.11-6.34,1.57-2.68,3.55-5.55,3.55-5.55a14.26,14.26,0,0,0,4.34-1.33c2.33-1.38,4.3-8.45,5.69-11.56,1.67-3.74,2.6-4.56,2.45-5a25.5,25.5,0,0,0-.91-3.19c-1.87-.41-9.3-3.15-16.21-6-.85,2.47-.06,2.79-1.75,6.56C113.83,101.67,113.87,103.49,112.18,104.48Z" transform="translate(-10.55 -12.94)"/><path class="cls-4" d="M94.09,72.47h0L76,55.65h0a1.46,1.46,0,0,0-2,0h0L55.91,72.47h0a1.48,1.48,0,0,0,1,2.56h2.25V91.94A2.81,2.81,0,0,0,62,94.75H88a2.81,2.81,0,0,0,2.81-2.81V75h2.25A1.48,1.48,0,0,0,94.09,72.47Z" transform="translate(-10.55 -12.94)"/><path class="cls-4" d="M85.92,58.83c.56-.73,1.26-1.65,2.33-1.66.8,0,1.8.49,1.92,1.16.29,1.64-4.62,4.38-5.42,3.59C84.27,61.44,85.26,59.69,85.92,58.83Z" transform="translate(-10.55 -12.94)"/></g></svg>